<svg data-v-423bf9ae="" xmlns="http://www.w3.org/2000/svg" viewBox="0 0 435.0301976091941 60" class="font"><!----><!----><defs data-v-423bf9ae=""><linearGradient data-v-423bf9ae="" gradientTransform="rotate(25)" id="44b9db21-878e-4e2a-b482-0bb2206f25a2" x1="0%" y1="0%" x2="100%" y2="0%"><stop data-v-423bf9ae="" offset="0%" style="stop-color: rgb(101, 102, 206); stop-opacity: 1;"></stop><stop data-v-423bf9ae="" offset="100%" style="stop-color: rgb(219, 193, 208); stop-opacity: 1;"></stop></linearGradient></defs><g data-v-423bf9ae="" id="85c4fc18-a3a4-4aac-af15-1039752f0e55" fill="url(#44b9db21-878e-4e2a-b482-0bb2206f25a2)" transform="matrix(6.036217558641619,0,0,6.036217558641619,-32.0523089249285,-22.213280780343574)"><path d="M8.82 3.75L8.82 3.75Q10.67 3.75 11.72 4.63L11.72 4.63L11.72 4.63Q12.77 5.50 12.77 7.06L12.77 7.06L12.77 7.06Q12.77 8.60 11.72 9.47L11.72 9.47L11.72 9.47Q10.67 10.35 8.82 10.35L8.82 10.35L6.02 10.35L6.02 13.55L5.31 13.55L5.31 3.75L8.82 3.75ZM8.82 9.70L8.82 9.70Q10.39 9.70 11.21 9.02L11.21 9.02L11.21 9.02Q12.04 8.33 12.04 7.06L12.04 7.06L12.04 7.06Q12.04 5.78 11.21 5.09L11.21 5.09L11.21 5.09Q10.39 4.40 8.82 4.40L8.82 4.40L6.02 4.40L6.02 9.70L8.82 9.70ZM15.32 13.55L15.32 3.75L16.03 3.75L16.03 12.91L21.67 12.91L21.67 13.55L15.32 13.55ZM30.83 13.55L29.57 10.79L23.88 10.79L22.64 13.55L21.87 13.55L26.38 3.75L27.09 3.75L31.60 13.55L30.83 13.55ZM24.16 10.19L29.30 10.19L26.73 4.54L24.16 10.19ZM33.38 13.55L33.38 3.75L34.09 3.75L34.09 13.55L33.38 13.55ZM44.77 3.75L45.49 3.75L45.49 13.55L44.90 13.55L38.22 5.04L38.22 13.55L37.51 13.55L37.51 3.75L38.11 3.75L44.77 12.26L44.77 3.75ZM53.05 13.62L53.05 13.62Q51.60 13.62 50.45 12.98L50.45 12.98L50.45 12.98Q49.29 12.33 48.63 11.20L48.63 11.20L48.63 11.20Q47.96 10.07 47.96 8.65L47.96 8.65L47.96 8.65Q47.96 7.24 48.63 6.10L48.63 6.10L48.63 6.10Q49.29 4.97 50.45 4.33L50.45 4.33L50.45 4.33Q51.60 3.68 53.05 3.68L53.05 3.68L53.05 3.68Q54.11 3.68 55.01 4.02L55.01 4.02L55.01 4.02Q55.90 4.37 56.53 5.04L56.53 5.04L56.08 5.50L56.08 5.50Q54.91 4.34 53.07 4.34L53.07 4.34L53.07 4.34Q51.84 4.34 50.83 4.90L50.83 4.90L50.83 4.90Q49.83 5.46 49.25 6.45L49.25 6.45L49.25 6.45Q48.68 7.43 48.68 8.65L48.68 8.65L48.68 8.65Q48.68 9.87 49.25 10.86L49.25 10.86L49.25 10.86Q49.83 11.84 50.83 12.40L50.83 12.40L50.83 12.40Q51.84 12.96 53.07 12.96L53.07 12.96L53.07 12.96Q54.89 12.96 56.08 11.79L56.08 11.79L56.53 12.25L56.53 12.25Q55.90 12.92 55.00 13.27L55.00 13.27L55.00 13.27Q54.10 13.62 53.05 13.62L53.05 13.62ZM59.64 12.91L65.69 12.91L65.69 13.55L58.93 13.55L58.93 3.75L65.48 3.75L65.48 4.40L59.64 4.40L59.64 8.26L64.86 8.26L64.86 8.89L59.64 8.89L59.64 12.91ZM68.29 13.55L68.29 3.75L72.17 3.75L72.17 3.75Q73.70 3.75 74.88 4.38L74.88 4.38L74.88 4.38Q76.06 5.01 76.72 6.12L76.72 6.12L76.72 6.12Q77.38 7.24 77.38 8.65L77.38 8.65L77.38 8.65Q77.38 10.07 76.72 11.18L76.72 11.18L76.72 11.18Q76.06 12.29 74.88 12.92L74.88 12.92L74.88 12.92Q73.70 13.55 72.17 13.55L72.17 13.55L68.29 13.55ZM69.01 12.91L72.11 12.91L72.11 12.91Q73.47 12.91 74.51 12.37L74.51 12.37L74.51 12.37Q75.54 11.83 76.10 10.86L76.10 10.86L76.10 10.86Q76.66 9.90 76.66 8.65L76.66 8.65L76.66 8.65Q76.66 7.41 76.10 6.44L76.10 6.44L76.10 6.44Q75.54 5.47 74.51 4.93L74.51 4.93L74.51 4.93Q73.47 4.40 72.11 4.40L72.11 4.40L69.01 4.40L69.01 12.91Z"></path></g><!----><!----></svg>